# xmcd
#
# Track frame offsets:
# 150
# 15442
# 33571
# 49471
# 65869
# 81190
# 97376
# 108668
# 128799
# 146328
# 166413
# 183278
#
# Disc length: 2623 seconds
#
#
# Revision: 0
# Processed by: cddbd v1.5.2PL0 Copyright (c) Steve Scherf et al.
# Submitted via: FreeRIP 2.96 
#
DISCID=ad0a3d0c
DTITLE=H.T. Roberts - Second Thoughts
DYEAR=1900
DGENRE=
TTITLE0=Wise Man
TTITLE1=My father's Mansion
TTITLE2=Short For Jericho
TTITLE3=Turboliner Blues
TTITLE4=Nowhere's Ville
TTITLE5=Stones Don't Fly
TTITLE6=Love
TTITLE7=Powerlines
TTITLE8=Comfort (bless the wild horses)
TTITLE9=Dark From Light
TTITLE10=Don Quixote's Lament
TTITLE11=In order Of Appearance
EXTD=
EXTT0=
EXTT1=
EXTT2=
EXTT3=
EXTT4=
EXTT5=
EXTT6=
EXTT7=
EXTT8=
EXTT9=
EXTT10=
EXTT11=
PLAYORDER=
